<?xml version="1.0" encoding="UTF-8" standalone="no"?>
<!-- Created with Inkscape (http://www.inkscape.org/) -->

<svg
   xmlns:dc="http://purl.org/dc/elements/1.1/"
   xmlns:cc="http://creativecommons.org/ns#"
   xmlns:rdf="http://www.w3.org/1999/02/22-rdf-syntax-ns#"
   xmlns:svg="http://www.w3.org/2000/svg"
   xmlns="http://www.w3.org/2000/svg"
   xmlns:sodipodi="http://sodipodi.sourceforge.net/DTD/sodipodi-0.dtd"
   xmlns:inkscape="http://www.inkscape.org/namespaces/inkscape"
   width="194.93948mm"
   height="116.08814mm"
   viewBox="0 0 690.73045 411.33594"
   id="svg2"
   version="1.1"
   inkscape:version="0.91 r13725"
   sodipodi:docname="logo.svg">
  <defs
     id="defs4" />
  <sodipodi:namedview
     id="base"
     pagecolor="#ffffff"
     bordercolor="#666666"
     borderopacity="1.0"
     inkscape:pageopacity="0.0"
     inkscape:pageshadow="2"
     inkscape:zoom="0.7"
     inkscape:cx="633.70148"
     inkscape:cy="95.182602"
     inkscape:document-units="px"
     inkscape:current-layer="layer1"
     showgrid="true"
     inkscape:snap-global="false"
     objecttolerance="10000"
     guidetolerance="20"
     inkscape:snap-bbox="false"
     inkscape:snap-nodes="true"
     inkscape:object-paths="true"
     inkscape:snap-midpoints="true"
     inkscape:snap-to-guides="false"
     inkscape:window-width="1463"
     inkscape:window-height="760"
     inkscape:window-x="-8"
     inkscape:window-y="-8"
     inkscape:window-maximized="1"
     fit-margin-top="0"
     fit-margin-left="0"
     fit-margin-right="0"
     fit-margin-bottom="0">
    <inkscape:grid
       type="xygrid"
       id="grid3358"
       originx="-26.371093"
       originy="-497.44229" />
  </sodipodi:namedview>
  <metadata
     id="metadata7">
    <rdf:RDF>
      <cc:Work
         rdf:about="">
        <dc:format>image/svg+xml</dc:format>
        <dc:type
           rdf:resource="http://purl.org/dc/dcmitype/StillImage" />
        <dc:title></dc:title>
      </cc:Work>
    </rdf:RDF>
  </metadata>
  <g
     inkscape:label="Layer 1"
     inkscape:groupmode="layer"
     id="layer1"
     transform="translate(-26.371094,-143.58398)">
    <path
       sodipodi:nodetypes="ccccccccccc"
       inkscape:connector-curvature="0"
       id="rect3457"
       d="m 371.51209,143.80859 -93.3418,39.28321 -18.6582,248.2539 112,122.98633 0.53515,0.58789 0.53516,-0.58789 112,-122.98633 -18.6582,-248.2539 -93.3418,-39.28321 -0.53516,-0.22461 z"
       style="fill:#000000;stroke:none;stroke-width:4.070755" />
    <path
       id="path4492"
       d="M 26.371094,195.23633 A 473.94919,473.94919 0 0 0 372.04688,345.45508 473.94919,473.94919 0 0 0 717.10156,195.55273 585.06598,473.94919 0 0 1 372.04688,287.45508 585.06598,473.94919 0 0 1 26.371094,195.23633 Z"
       style="fill:#ffffff;fill-rule:evenodd;stroke:none;stroke-width:0.82520324px;stroke-linecap:butt;stroke-linejoin:miter;stroke-opacity:1"
       inkscape:connector-curvature="0" />
    <path
       sodipodi:nodetypes="cccccccccccccccccccccccccc"
       inkscape:connector-curvature="0"
       id="path3471"
       d="m 363.14648,155.68359 -37.14257,41.07227 -5.1211,1.48242 -35,-13.21484 -4.78465,-0.12035 -0.46476,3.45478 3.48379,1.34135 35,13.21484 3.38476,4.33789 -10,227.21485 -2.1289,2.20898 -45,-6.78711 0.10622,2.8303 2.62013,2.63874 41.52755,6.26338 4.90625,2.1836 42.06162,87.25038 c 0,0 8.5692,9.49028 12.79914,14.28032 l -7.14201,-14.06 -43.21484,-89.64258 -1.53906,-6.94726 10,-227.21485 2.21289,-7.35937 37.14258,-41.07227 2.16137,-9.23771 z"
       style="color:#000000;font-style:normal;font-variant:normal;font-weight:normal;font-stretch:normal;font-size:medium;line-height:normal;font-family:sans-serif;text-indent:0;text-align:start;text-decoration:none;text-decoration-line:none;text-decoration-style:solid;text-decoration-color:#000000;letter-spacing:normal;word-spacing:normal;text-transform:none;direction:ltr;block-progression:tb;writing-mode:lr-tb;baseline-shift:baseline;text-anchor:start;white-space:normal;clip-rule:nonzero;display:inline;overflow:visible;visibility:visible;opacity:1;isolation:auto;mix-blend-mode:normal;color-interpolation:sRGB;color-interpolation-filters:linearRGB;solid-color:#000000;solid-opacity:1;fill:#ffffff;fill-opacity:1;fill-rule:evenodd;stroke:none;stroke-width:5;stroke-linecap:butt;stroke-linejoin:miter;stroke-miterlimit:4;stroke-dasharray:none;stroke-dashoffset:0;stroke-opacity:1;color-rendering:auto;image-rendering:auto;shape-rendering:auto;text-rendering:auto;enable-background:accumulate" />
    <path
       inkscape:connector-curvature="0"
       style="fill:#ffffff;fill-rule:evenodd;stroke:none;stroke-width:0.82520324px;stroke-linecap:butt;stroke-linejoin:miter;stroke-opacity:1"
       d="M 26.371094,181.23633 A 473.94919,473.94919 0 0 0 372.04688,331.45508 473.94919,473.94919 0 0 0 717.10156,181.55273 585.06598,473.94919 0 0 1 372.04688,273.45508 585.06598,473.94919 0 0 1 26.371094,181.23633 Z"
       id="path4494" />
    <path
       style="fill:#aa0000;fill-rule:evenodd;stroke:none;stroke-width:0.82520324px;stroke-linecap:butt;stroke-linejoin:miter;stroke-opacity:1"
       d="M 26.371094,187.23633 A 473.94919,473.94919 0 0 0 372.04688,337.45508 473.94919,473.94919 0 0 0 717.10156,187.55273 585.06598,473.94919 0 0 1 372.04688,279.45508 585.06598,473.94919 0 0 1 26.371094,187.23633 Z"
       id="circle4453"
       inkscape:connector-curvature="0" />
    <circle
       r="71.863754"
       cy="327.50507"
       cx="372.04724"
       id="circle3438"
       style="fill:#ffffff;fill-rule:evenodd;stroke:#f9f9f9;stroke-width:0.91462958px;stroke-linecap:butt;stroke-linejoin:miter;stroke-opacity:1" />
    <path
       style="color:#000000;font-style:normal;font-variant:normal;font-weight:normal;font-stretch:normal;font-size:medium;line-height:normal;font-family:sans-serif;text-indent:0;text-align:start;text-decoration:none;text-decoration-line:none;text-decoration-style:solid;text-decoration-color:#000000;letter-spacing:normal;word-spacing:normal;text-transform:none;direction:ltr;block-progression:tb;writing-mode:lr-tb;baseline-shift:baseline;text-anchor:start;white-space:normal;clip-rule:nonzero;display:inline;overflow:visible;visibility:visible;opacity:1;isolation:auto;mix-blend-mode:normal;color-interpolation:sRGB;color-interpolation-filters:linearRGB;solid-color:#000000;solid-opacity:1;fill:#ffffff;fill-opacity:1;fill-rule:evenodd;stroke:none;stroke-width:5;stroke-linecap:butt;stroke-linejoin:miter;stroke-miterlimit:4;stroke-dasharray:none;stroke-dashoffset:0;stroke-opacity:1;color-rendering:auto;image-rendering:auto;shape-rendering:auto;text-rendering:auto;enable-background:accumulate"
       d="m 375.64144,155.68359 37.14257,41.07227 5.1211,1.48242 35,-13.21484 4.78465,-0.12035 0.46476,3.45478 -3.48379,1.34135 -35,13.21484 -3.38476,4.33789 10,227.21485 2.1289,2.20898 45,-6.78711 -0.10622,2.8303 -2.62013,2.63874 -41.52755,6.26338 -4.90625,2.1836 -42.06162,87.25038 c 0,0 -8.5692,9.49028 -12.79914,14.28032 l 7.14201,-14.06 43.21484,-89.64258 1.53906,-6.94726 -10,-227.21485 -2.21289,-7.35937 -37.14258,-41.07227 -2.16137,-9.23771 z"
       id="path4496"
       inkscape:connector-curvature="0"
       sodipodi:nodetypes="cccccccccccccccccccccccccc" />
    <circle
       style="fill:#d40000;fill-rule:evenodd;stroke:none;stroke-width:0.82520324px;stroke-linecap:butt;stroke-linejoin:miter;stroke-opacity:1"
       id="path3360"
       cx="372.04724"
       cy="327.50507"
       r="64.837395" />
  </g>
</svg>
